# File created by Blade
# Date/Time:  Fri Jan 16 19:32:17 2015
# Frame Rate: 120.000 fps
#------------------------------------------------------
:FULLY-SPECIFIED
:DEGREES
709
root 19.836345 35.446118 -20.092818 10.166556 11.170835 0.314050
Spine -22.374596 -8.965734 -1.898330
Head 16.801691 -4.800158 7.339678
LeftShoulder -5.895001 5.724338 0.420541
LeftArm -95.424374 49.045206 -170.838714
LeftForeArm 60.642308 -0.000000 121.889048
LeftHand 9.320673 0.000000 -24.423304
LeftHandThumb1 -26.253704 0.000000 33.147579
RightShoulder -12.119004 12.595615 -30.181420
RightArm -340.137003 71.676001 -357.577615
RightForeArm -18.262321 -0.000000 34.387527
RightHand -4.983752 -0.000000 -17.059011
RightHandThumb1 -24.326973 -0.000000 -32.862282
LeftUpLeg -1.157929 0.275265 0.815104
LeftLeg -6.733142 -0.000000 0.000000
LeftFoot -20.025036 26.908970 -13.024799
LeftToeBase 25.682058 -0.000000 -0.000000
RightUpLeg 1.324304 -16.601238 -1.585684
RightLeg -4.414723 -0.000000 0.000000
RightFoot -23.362111 -24.965207 20.416454
RightToeBase 24.079199 -0.000000 -0.000000
710
root 19.836663 35.446750 -20.097454 10.172812 11.182607 0.307502
Spine -22.376723 -8.964839 -1.893753
Head 16.800567 -4.808397 7.336504
LeftShoulder -5.901433 5.720887 0.401187
LeftArm -95.389060 49.050545 -170.777148
LeftForeArm 60.471576 -0.000000 121.877411
LeftHand 9.367587 -0.000000 -24.532230
LeftHandThumb1 -26.253704 0.000000 33.147579
RightShoulder -12.121306 12.548811 -30.175161
RightArm -340.261546 71.627721 -357.688751
RightForeArm -18.294388 0.000000 34.403052
RightHand -5.009431 -0.000000 -17.085307
RightHandThumb1 -24.326973 -0.000000 -32.862282
LeftUpLeg -1.179414 0.251169 0.832681
LeftLeg -6.710077 -0.000000 0.000000
LeftFoot -20.045187 26.835965 -13.052395
LeftToeBase 25.773345 -0.000000 -0.000000
RightUpLeg 1.317710 -16.587801 -1.577073
RightLeg -4.424041 -0.000000 0.000000
RightFoot -23.337838 -24.989776 20.395913
RightToeBase 24.061853 -0.000000 -0.000000
711
root 19.838320 35.447074 -20.100359 10.169421 11.180669 0.304987
Spine -22.375248 -8.961872 -1.893134
Head 16.817728 -4.808607 7.326181
LeftShoulder -5.920186 5.750385 0.384346
LeftArm -95.323268 49.076735 -170.694370
LeftForeArm 60.212201 -0.000000 121.835462
LeftHand 9.422911 -0.000000 -24.614436
LeftHandThumb1 -26.253704 0.000000 33.147579
RightShoulder -12.109471 12.508741 -30.165032
RightArm -340.385097 71.592352 -357.795397
RightForeArm -18.260602 -0.000000 34.407802
RightHand -5.006406 -0.000000 -16.941139
RightHandThumb1 -24.326973 -0.000000 -32.862282
LeftUpLeg -1.176679 0.248592 0.831970
LeftLeg -6.717640 -0.000000 0.000000
LeftFoot -20.045878 26.830139 -13.072481
LeftToeBase 25.720328 -0.000000 -0.000000
RightUpLeg 1.323032 -16.596156 -1.577832
RightLeg -4.442601 -0.000000 0.000000
RightFoot -23.338022 -24.975784 20.432967
RightToeBase 24.038947 -0.000000 -0.000000
712
root 19.840992 35.447753 -20.103506 10.166589 11.187650 0.308829
Spine -22.371139 -8.966200 -1.892020
Head 16.824090 -4.837876 7.289375
LeftShoulder -5.938965 5.756978 0.354307
LeftArm -95.271337 49.078709 -170.606187
LeftForeArm 59.926520 -0.000000 121.787006
LeftHand 9.449464 -0.000000 -24.664609
LeftHandThumb1 -26.253704 0.000000 33.147579
RightShoulder -12.104943 12.461639 -30.157225
RightArm -340.480481 71.552314 -357.886462
RightForeArm -18.295852 -0.000000 34.398436
RightHand -5.024999 -0.000000 -16.926588
RightHandThumb1 -24.326973 -0.000000 -32.862282
LeftUpLeg -1.178443 0.245642 0.814938
LeftLeg -6.731283 -0.000000 0.000000
LeftFoot -20.010628 26.925523 -13.009486
LeftToeBase 25.737380 -0.000000 -0.000000
RightUpLeg 1.330354 -16.611225 -1.586559
RightLeg -4.451609 -0.000000 0.000000
RightFoot -23.294652 -24.977023 20.398502
RightToeBase 23.991271 -0.000000 -0.000000
713
root 19.841525 35.448099 -20.106867 10.164770 11.183469 0.305046
Spine -22.367916 -8.951560 -1.893683
Head 16.834668 -4.862021 7.259997
LeftShoulder -5.933856 5.725627 0.370010
LeftArm -95.264288 49.050261 -170.580210
LeftForeArm 59.744645 -0.000000 121.729599
LeftHand 9.461205 -0.000000 -24.629970
LeftHandThumb1 -26.253704 0.000000 33.147579
RightShoulder -12.101081 12.443435 -30.156318
RightArm -340.647423 71.449851 -358.056865
RightForeArm -18.397979 -0.000000 34.348325
RightHand -4.972893 0.000000 -17.058857
RightHandThumb1 -24.326973 -0.000000 -32.862282
LeftUpLeg -1.182383 0.221655 0.826914
LeftLeg -6.715507 -0.000000 0.000000
LeftFoot -20.043197 26.855828 -13.063708
LeftToeBase 25.735931 -0.000000 -0.000000
RightUpLeg 1.326731 -16.617195 -1.584837
RightLeg -4.456821 -0.000000 0.000000
RightFoot -23.291580 -24.952308 20.418275
RightToeBase 23.992328 -0.000000 -0.000000
714
root 19.845233 35.448084 -20.103914 10.125777 11.195284 0.306434
Spine -22.332645 -8.962149 -1.892851
Head 16.840968 -4.855452 7.236749
LeftShoulder -5.972606 5.727001 0.318448
LeftArm -95.238378 49.045493 -170.508699
LeftForeArm 59.564542 -0.000000 121.673071
LeftHand 9.544434 -0.000000 -24.664939
LeftHandThumb1 -26.253704 0.000000 33.147579
RightShoulder -12.096292 12.396698 -30.150075
RightArm -340.766140 71.355703 -358.182170
RightForeArm -18.501621 -0.000000 34.298065
RightHand -5.018155 0.000000 -17.119860
RightHandThumb1 -24.326973 -0.000000 -32.862282
LeftUpLeg -1.125258 0.212580 0.821873
LeftLeg -6.742595 -0.000000 0.000000
LeftFoot -20.032301 26.849149 -13.074185
LeftToeBase 25.720637 -0.000000 -0.000000
RightUpLeg 1.393328 -16.653515 -1.605677
RightLeg -4.487118 -0.000000 0.000000
RightFoot -23.251578 -24.935554 20.385061
RightToeBase 24.025204 -0.000000 -0.000000
715
root 19.848321 35.448593 -20.107410 10.127673 11.187165 0.317678
Spine -22.331883 -8.937456 -1.915744
Head 16.844815 -4.888188 7.213301
LeftShoulder -5.978051 5.738725 0.301684
LeftArm -95.242219 49.053087 -170.492424
LeftForeArm 59.522282 -0.000000 121.610359
LeftHand 9.619717 -0.000000 -24.639844
LeftHandThumb1 -26.253704 0.000000 33.147579
RightShoulder -12.100019 12.379695 -30.143465
RightArm -341.016013 71.187788 -358.443633
RightForeArm -18.519758 -0.000000 34.254345
RightHand -5.066283 -0.000000 -17.155236
RightHandThumb1 -24.326973 -0.000000 -32.862282
LeftUpLeg -1.118561 0.195910 0.796060
LeftLeg -6.776620 -0.000000 0.000000
LeftFoot -19.974329 26.970066 -13.007533
LeftToeBase 25.696018 -0.000000 -0.000000
RightUpLeg 1.392517 -16.660052 -1.624207
RightLeg -4.497907 -0.000000 0.000000
RightFoot -23.250577 -24.907853 20.408340
RightToeBase 24.006541 -0.000000 -0.000000
716
root 19.849246 35.448692 -20.111883 10.130433 11.171544 0.314923
Spine -22.327931 -8.913624 -1.928046
Head 16.837841 -4.896254 7.224846
LeftShoulder -5.986438 5.729641 0.306153
LeftArm -95.264942 49.046723 -170.504088
LeftForeArm 59.516476 -0.000000 121.546995
LeftHand 9.662142 -0.000000 -24.660731
LeftHandThumb1 -26.253704 0.000000 33.147579
RightShoulder -12.107862 12.327742 -30.127548
RightArm -341.242816 71.053276 -358.684821
RightForeArm -18.440602 -0.000000 34.180392
RightHand -4.960770 -0.000000 -17.462807
RightHandThumb1 -24.326973 -0.000000 -32.862282
LeftUpLeg -1.120292 0.188952 0.794841
LeftLeg -6.789428 -0.000000 0.000000
LeftFoot -19.976616 26.990952 -13.014253
LeftToeBase 25.683133 -0.000000 -0.000000
RightUpLeg 1.376953 -16.640272 -1.624598
RightLeg -4.492540 -0.000000 0.000000
RightFoot -23.253071 -24.899830 20.422515
RightToeBase 24.049602 -0.000000 -0.000000
717
root 19.846877 35.448959 -20.120168 10.155982 11.175672 0.294148
Spine -22.347601 -8.896205 -1.923774
Head 16.835556 -4.933117 7.233757
LeftShoulder -5.959170 5.734852 0.311328
LeftArm -95.242070 49.039907 -170.475805
LeftForeArm 59.551333 -0.000000 121.477582
LeftHand 9.698260 0.000000 -24.717401
LeftHandThumb1 -26.253704 0.000000 33.147579
RightShoulder -12.122328 12.286189 -30.114443
RightArm -341.486060 70.888622 -358.925308
RightForeArm -18.556947 0.000000 34.107970
RightHand -5.085024 0.000000 -17.059036
RightHandThumb1 -24.326973 -0.000000 -32.862282
LeftUpLeg -1.164407 0.125152 0.832040
LeftLeg -6.770413 -0.000000 0.000000
LeftFoot -20.008896 26.961323 -13.039703
LeftToeBase 25.750937 -0.000000 -0.000000
RightUpLeg 1.327936 -16.620214 -1.590598
RightLeg -4.483883 -0.000000 0.000000
RightFoot -23.247795 -24.930139 20.406928
RightToeBase 24.074078 -0.000000 -0.000000
718
root 19.850694 35.449121 -20.121531 10.135657 11.153927 0.308949
Spine -22.323488 -8.876623 -1.960456
Head 16.843825 -4.942251 7.244994
LeftShoulder -5.996275 5.788460 0.318889
LeftArm -95.255707 49.101800 -170.478231
LeftForeArm 59.465118 -0.000000 121.405648
LeftHand 9.669554 -0.000000 -24.832654
LeftHandThumb1 -26.253704 0.000000 33.147579
RightShoulder -12.101916 12.261207 -30.095754
RightArm -341.850111 70.677266 -359.314628
RightForeArm -18.487181 -0.000000 33.978630
RightHand -5.118065 0.000000 -17.309136
RightHandThumb1 -24.326973 -0.000000 -32.862282
LeftUpLeg -1.123273 0.132688 0.806482
LeftLeg -6.802620 -0.000000 0.000000
LeftFoot -19.978488 26.973536 -13.047413
LeftToeBase 25.685425 -0.000000 -0.000000
RightUpLeg 1.355706 -16.607371 -1.623145
RightLeg -4.497612 -0.000000 0.000000
RightFoot -23.238778 -24.916398 20.397487
RightToeBase 24.034564 -0.000000 -0.000000
719
root 19.851926 35.449106 -20.124900 10.127667 11.142251 0.303378
Spine -22.309092 -8.848900 -1.978320
Head 16.838751 -4.962828 7.264013
LeftShoulder -5.985628 5.814135 0.314763
LeftArm -95.246144 49.105860 -170.457176
LeftForeArm 59.443318 -0.000000 121.321634
LeftHand 9.665365 -0.000000 -25.009647
LeftHandThumb1 -26.253704 0.000000 33.147579
RightShoulder -12.115274 12.181876 -30.063530
RightArm -342.106634 70.514319 -359.596736
RightForeArm -18.703541 -0.000000 33.843038
RightHand -5.075771 -0.000000 -16.937622
RightHandThumb1 -24.326973 -0.000000 -32.862282
LeftUpLeg -1.113026 0.126014 0.807559
LeftLeg -6.816727 -0.000000 0.000000
LeftFoot -19.981597 26.995556 -13.049971
LeftToeBase 25.697864 -0.000000 -0.000000
RightUpLeg 1.353179 -16.601410 -1.623761
RightLeg -4.491670 -0.000000 0.000000
RightFoot -23.228545 -24.907830 20.404826
RightToeBase 24.041549 -0.000000 -0.000000
720
root 19.853753 35.449719 -20.128963 10.128047 11.125740 0.303465
Spine -22.309543 -8.823265 -1.991259
Head 16.849869 -4.985522 7.252999
LeftShoulder -5.971028 5.819670 0.284071
LeftArm -95.231513 49.063805 -170.362247
LeftForeArm 59.361969 -0.000000 121.244969
LeftHand 9.713000 0.000000 -25.113291
LeftHandThumb1 -26.253704 0.000000 33.147579
RightShoulder -12.107976 12.146393 -30.061446
RightArm -342.442797 70.297977 -359.963337
RightForeArm -18.680415 0.000000 33.658503
RightHand -4.958518 -0.000000 -17.224172
RightHandThumb1 -24.326973 -0.000000 -32.862282
LeftUpLeg -1.105247 0.098422 0.802972
LeftLeg -6.837956 -0.000000 0.000000
LeftFoot -19.970368 27.032340 -13.055984
LeftToeBase 25.651631 -0.000000 -0.000000
RightUpLeg 1.341638 -16.585795 -1.628583
RightLeg -4.486987 -0.000000 0.000000
RightFoot -23.218244 -24.915043 20.387659
RightToeBase 24.026766 -0.000000 -0.000000
721
root 19.854920 35.449662 -20.132260 10.129795 11.090324 0.291268
Spine -22.316700 -8.777129 -1.996710
Head 16.861765 -4.996751 7.252676
LeftShoulder -5.953449 5.822655 0.272380
LeftArm -95.233736 49.035936 -170.317803
LeftForeArm 59.286979 -0.000000 121.156037
LeftHand 9.763627 -0.000000 -25.271927
LeftHandThumb1 -26.253704 0.000000 33.147579
RightShoulder -12.109737 12.118323 -30.064573
RightArm -342.747517 70.050744 -360.271542
RightForeArm -18.803405 -0.000000 33.487223
RightHand -4.985558 -0.000000 -17.120176
RightHandThumb1 -24.326973 -0.000000 -32.862282
LeftUpLeg -1.101116 0.135351 0.805193
LeftLeg -6.854749 -0.000000 0.000000
LeftFoot -19.959778 27.039994 -13.026435
LeftToeBase 25.675296 -0.000000 -0.000000
RightUpLeg 1.326737 -16.542674 -1.622337
RightLeg -4.488646 -0.000000 0.000000
RightFoot -23.207718 -24.924785 20.376777
RightToeBase 24.049254 -0.000000 -0.000000
